<?xml version="1.0" encoding="utf-8"?>
<!-- Generator: Adobe Illustrator 23.0.1, SVG Export Plug-In . SVG Version: 6.00 Build 0)  -->
<svg version="1.1" id="_x30_" xmlns="http://www.w3.org/2000/svg" xmlns:xlink="http://www.w3.org/1999/xlink" x="0px" y="0px"
	 viewBox="0 0 612 792" style="enable-background:new 0 0 612 792;" xml:space="preserve">
<style type="text/css">
	.st0{fill:none;stroke:#000000;stroke-width:0.7087;stroke-linecap:round;stroke-linejoin:round;stroke-miterlimit:10;}
</style>
<g id="CIRCLE_5_">
	<path class="st0" d="M535.31,63.54c0-2.66,2.16-4.82,4.82-4.82c2.66,0,4.82,2.16,4.82,4.82s-2.16,4.82-4.82,4.82
		C537.47,68.36,535.31,66.2,535.31,63.54L535.31,63.54z"/>
</g>
<g id="CIRCLE_7_">
	<path class="st0" d="M535.31,728.46c0-2.66,2.16-4.82,4.82-4.82c2.66,0,4.82,2.16,4.82,4.82c0,2.66-2.16,4.82-4.82,4.82
		C537.47,733.28,535.31,731.12,535.31,728.46L535.31,728.46z"/>
</g>
<g id="CIRCLE_9_">
	<path class="st0" d="M87.28,728.46c0-2.66,2.16-4.82,4.82-4.82c2.66,0,4.82,2.16,4.82,4.82c0,2.66-2.16,4.82-4.82,4.82
		C89.44,733.28,87.28,731.12,87.28,728.46L87.28,728.46z"/>
</g>
<g id="CIRCLE_10_">
	<path class="st0" d="M87.28,63.54c0-2.66,2.16-4.82,4.82-4.82c2.66,0,4.82,2.16,4.82,4.82s-2.16,4.82-4.82,4.82
		C89.44,68.36,87.28,66.2,87.28,63.54L87.28,63.54z"/>
</g>
<g id="LWPOLYLINE">
	<path class="st0" d="M93.6,45.83h445.04c10.45,0,18.92,8.47,18.92,18.92c0,0,0,662.51,0,662.51c0,10.45-8.47,18.93-18.92,18.93
		H93.6c-10.45,0-18.93-8.48-18.93-18.93V64.74C74.67,54.29,83.15,45.82,93.6,45.83z"/>
</g>
</svg>
