0
SECTION
2
HEADER
9
$INSUNITS
70
4
9
$ACADVER
1
AC1014
9
$HANDSEED
5
FFFF
0
ENDSEC
0
SECTION
2
TABLES
0
TABLE
2
VPORT
5
8
100
AcDbSymbolTable
0
ENDTAB
0
TABLE
2
LTYPE
5
5
100
AcDbSymbolTable
0
LTYPE
5
14
100
AcDbSymbolTableRecord
100
AcDbLinetypeTableRecord
2
BYBLOCK
70
0
0
LTYPE
5
15
100
AcDbSymbolTableRecord
100
AcDbLinetypeTableRecord
2
BYLAYER
70
0
0
ENDTAB
0
TABLE
2
LAYER
5
2
100
AcDbSymbolTable
70
2
0
LAYER
5
50
100
AcDbSymbolTableRecord
100
AcDbLayerTableRecord
2
0
70
0
6
CONTINUOUS
0
ENDTAB
0
TABLE
2
STYLE
5
3
100
AcDbSymbolTable
70
1
0
STYLE
5
11
100
AcDbSymbolTableRecord
100
AcDbTextStyleTableRecord
2
STANDARD
70
0
0
ENDTAB
0
TABLE
2
VIEW
5
6
100
AcDbSymbolTable
70
0
0
ENDTAB
0
TABLE
2
UCS
5
7
100
AcDbSymbolTable
70
0
0
ENDTAB
0
TABLE
2
APPID
5
9
100
AcDbSymbolTable
70
2
0
APPID
5
12
100
AcDbSymbolTableRecord
100
AcDbRegAppTableRecord
2
ACAD
70
0
0
ENDTAB
0
TABLE
2
DIMSTYLE
5
A
100
AcDbSymbolTable
70
1
0
ENDTAB
0
TABLE
2
BLOCK_RECORD
5
1
100
AcDbSymbolTable
70
1
0
BLOCK_RECORD
5
1F
100
AcDbSymbolTableRecord
100
AcDbBlockTableRecord
2
*MODEL_SPACE
0
BLOCK_RECORD
5
1B
100
AcDbSymbolTableRecord
100
AcDbBlockTableRecord
2
*PAPER_SPACE
0
ENDTAB
0
ENDSEC
0
SECTION
2
BLOCKS
0
BLOCK
5
20
100
AcDbEntity
100
AcDbBlockBegin
2
*MODEL_SPACE
0
ENDBLK
5
21
100
AcDbEntity
100
AcDbBlockEnd
0
BLOCK
5
1C
100
AcDbEntity
100
AcDbBlockBegin
2
*PAPER_SPACE
0
ENDBLK
5
1D
100
AcDbEntity
100
AcDbBlockEnd
0
ENDSEC
0
SECTION
2
ENTITIES
0
LINE
5
100
100
AcDbEntity
8
0
100
AcDbLine
10
-83.409204469199594
20
-116.85999999999309
30
0
11
-83.40920446919958
21
116.85999999992747
31
0
0
SPLINE
5
101
100
AcDbEntity
8
0
100
AcDbSpline
70
4
71
3
72
17
73
13
74
0
42
0.000000001
43
0.0000000001
44
0.0000000001
40
-24.142783200090712
40
-24.142783200090712
40
-24.142783200090712
40
-24.142783200090712
40
-24.003362980907468
40
-24.003362980907468
40
-23.754556890457703
40
-23.754556890457703
40
-23.519142219403292
40
-23.519142219403292
40
-23.372008049994285
40
-23.372008049994285
40
-23.372008049994285
40
-23.371989722672964
40
-23.371989722672964
40
-23.371989722672964
40
-23.371989722672964
41
1
41
1
41
1
41
1
41
1
41
1
41
1
41
1
41
1
41
1
41
1
41
1
41
1
10
-78.499610446168191
20
-121.77136934414276
30
0
10
-78.964997888061589
20
-121.77126678907175
30
0
10
-79.429512671412027
20
-121.7047058885076
30
0
10
-80.672995915853093
20
-121.34129155690148
30
0
10
-81.408154565144045
20
-120.90267602653225
30
0
10
-82.543468408206806
20
-119.75376385768615
30
0
10
-82.958381186423708
20
-119.06099522887789
30
0
10
-83.335214888113057
20
-117.84159627496079
30
0
10
-83.409255454571081
20
-117.35125112243617
30
0
10
-83.409204478724064
20
-116.86018350510159
30
0
10
-83.409204472374427
20
-116.86012233675402
30
0
10
-83.409204464881896
20
-116.86006116837574
30
0
10
-83.409204456246457
20
-116.85999999999487
30
0
0
LINE
5
102
100
AcDbEntity
8
0
100
AcDbLine
10
78.499999999887621
20
-121.77136930122073
30
0
11
-78.499610446168177
21
-121.77136930122074
31
0
0
SPLINE
5
103
100
AcDbEntity
8
0
100
AcDbSpline
70
4
71
3
72
14
73
10
74
0
42
0.000000001
43
0.0000000001
44
0.0000000001
40
-40.613289522103479
40
-40.613289522103479
40
-40.613289522103479
40
-40.613289522103479
40
-40.472082378173681
40
-40.472082378173681
40
-40.225099557620851
40
-40.225099557620851
40
-39.989754574788122
40
-39.989754574788122
40
-39.842733508358464
40
-39.842733508358464
40
-39.842733508358464
40
-39.842733508358464
41
1
41
1
41
1
41
1
41
1
41
1
41
1
41
1
41
1
41
1
10
83.407272734385103
20
-116.86038812790272
30
0
10
83.407376209213766
20
-117.33167436248374
30
0
10
83.339281606690491
20
-117.8022241185127
30
0
10
82.971919319630544
20
-119.04428045490791
30
0
10
82.535660734393645
20
-119.7731879573668
30
0
10
81.391679293178484
20
-120.90453817561857
30
0
10
80.699342002950004
20
-121.31960716433375
30
0
10
79.48066235012638
20
-121.69684631527761
30
0
10
78.990757376572873
20
-121.77110615660879
30
0
10
78.499999999787661
20
-121.77136911463344
30
0
0
LINE
5
104
100
AcDbEntity
8
0
100
AcDbLine
10
83.407272691776711
20
116.85999999987177
30
0
11
83.40727269177674
21
-116.86038812790275
31
0
0
SPLINE
5
105
100
AcDbEntity
8
0
100
AcDbSpline
70
4
71
3
72
14
73
10
74
0
42
0.000000001
43
0.0000000001
44
0.0000000001
40
-64.755481339211897
40
-64.755481339211897
40
-64.755481339211897
40
-64.755481339211897
40
-64.616220003925619
40
-64.616220003925619
40
-64.367567303397266
40
-64.367567303397266
40
-64.132308622799101
40
-64.132308622799101
40
-63.985307692708211
40
-63.985307692708211
40
-63.985307692708211
40
-63.985307692708211
41
1
41
1
41
1
41
1
41
1
41
1
41
1
41
1
41
1
41
1
10
78.499966876832886
20
121.76604644497851
30
0
10
78.964825209026074
20
121.76603773478901
30
0
10
79.428821623765515
20
121.69967832401078
30
0
10
80.671428654619532
20
121.3369731084976
30
0
10
81.406276465799706
20
120.89886446914286
30
0
10
82.541221296817326
20
119.75103759930411
30
0
10
82.956072910444902
20
119.05885519104896
30
0
10
83.332995817519219
20
117.84049697785053
30
0
10
83.407137529731145
20
117.35062011885501
30
0
10
83.407272642494945
20
116.85999999985822
30
0
0
LINE
5
106
100
AcDbEntity
8
0
100
AcDbLine
10
-78.499999999993875
20
121.76604644466821
30
0
11
78.499966876832886
21
121.76604644497851
31
0
0
SPLINE
5
107
100
AcDbEntity
8
0
100
AcDbSpline
70
4
71
3
72
17
73
13
74
0
42
0.000000001
43
0.0000000001
44
0.0000000001
40
-81.22580017418035
40
-81.22580017418035
40
-81.22580017418035
40
-81.22580017418035
40
-81.084658993178451
40
-81.084658993178451
40
-80.837776873865835
40
-80.837776873865835
40
-80.602531238449757
40
-80.602531238449757
40
-80.455502716314712
40
-80.455502716314712
40
-80.455502716314712
40
-80.455467372557351
40
-80.455467372557351
40
-80.455467372557351
40
-80.455467372557351
41
1
41
1
41
1
41
1
41
1
41
1
41
1
41
1
41
1
41
1
41
1
41
1
41
1
10
-83.409204379683942
20
116.8599999998942
30
0
10
-83.409029509597559
20
117.33115490039822
30
0
10
-83.340672551816724
20
117.80145812952685
30
0
10
-82.972727763634211
20
119.04276042256328
30
0
10
-82.536209920621971
20
119.77111146445603
30
0
10
-81.392027381004738
20
120.90130368050781
30
0
10
-80.6997343544286
20
121.31578444105644
30
0
10
-79.481119654298851
20
121.69220711342732
30
0
10
-78.991140741112361
20
121.76614474385745
30
0
10
-78.500353936593683
20
121.76604648010024
30
0
10
-78.500235957786018
20
121.7660464564789
30
0
10
-78.500117978877441
20
121.76604642860343
30
0
10
-78.500000000006963
20
121.76604639647391
30
0
0
CIRCLE
5
108
100
AcDbEntity
8
0
100
AcDbCircle
10
79.027671324723869
20
117.28394443658627
30
0
40
1.25
210
0
220
0
230
1
0
LINE
5
109
100
AcDbEntity
8
0
100
AcDbLine
10
0
20
130
30
0
11
0
21
-130
31
0
0
LINE
5
110
100
AcDbEntity
8
0
100
AcDbLine
10
103.21541319710741
20
-0.00019406401548849317
30
0
11
-110
21
-0.00019406401548849317
31
0
0
CIRCLE
5
111
100
AcDbEntity
8
0
100
AcDbCircle
10
79.027671324723869
20
-117.28433256461724
30
0
40
1.25
210
0
220
0
230
1
0
CIRCLE
5
112
100
AcDbEntity
8
0
100
AcDbCircle
10
-79.027671324723869
20
-117.28433256461724
30
0
40
1.25
210
0
220
0
230
1
0
CIRCLE
5
113
100
AcDbEntity
8
0
100
AcDbCircle
10
-79.027671324723869
20
117.28394443658627
30
0
40
1.25
210
0
220
0
230
1
0
CIRCLE
5
114
100
AcDbEntity
8
0
100
AcDbCircle
10
79.027671324723869
20
117.28394443658627
30
0
40
3.3600000000000119
210
0
220
0
230
1
0
CIRCLE
5
115
100
AcDbEntity
8
0
100
AcDbCircle
10
79.027671324723869
20
117.28394443658627
30
0
40
1.7000000000000002
210
0
220
0
230
1
0
CIRCLE
5
116
100
AcDbEntity
8
0
100
AcDbCircle
10
79.027671324723869
20
-117.28433256461724
30
0
40
3.3600000000000119
210
0
220
0
230
1
0
CIRCLE
5
117
100
AcDbEntity
8
0
100
AcDbCircle
10
79.027671324723869
20
-117.28433256461724
30
0
40
1.7000000000000002
210
0
220
0
230
1
0
CIRCLE
5
118
100
AcDbEntity
8
0
100
AcDbCircle
10
-79.027671324723869
20
-117.28433256461724
30
0
40
3.3600000000000119
210
0
220
0
230
1
0
CIRCLE
5
119
100
AcDbEntity
8
0
100
AcDbCircle
10
-79.027671324723869
20
-117.28433256461724
30
0
40
1.7000000000000002
210
0
220
0
230
1
0
CIRCLE
5
120
100
AcDbEntity
8
0
100
AcDbCircle
10
-79.027671324723869
20
117.28394443658627
30
0
40
1.7000000000000002
210
0
220
0
230
1
0
CIRCLE
5
121
100
AcDbEntity
8
0
100
AcDbCircle
10
-79.027671324723869
20
117.28394443658627
30
0
40
3.3600000000000119
210
0
220
0
230
1
0
LWPOLYLINE
5
122
100
AcDbEntity
8
0
100
AcDbPolyline
90
8
70
1
43
0.0
10
-78.499999999980901
20
123.53381339763457
10
78.500000000010701
20
123.53381339763459
42
-0.41414877652342807
10
85.17503964474308
20
116.85999999987183
10
85.175039644743094
20
-116.85999999996709
42
-0.41416247813852147
10
78.499999999887663
20
-123.5391362541871
10
-78.499999999999318
20
-123.53913625418711
42
-0.41417942351479609
10
-85.176971422165963
20
-116.85999999999133
10
-85.176971422165934
20
116.85999999992747
42
-0.41419228357965437
0
ENDSEC
0
SECTION
2
OBJECTS
0
DICTIONARY
5
C
100
AcDbDictionary
3
ACAD_GROUP
350
D
3
ACAD_MLINESTYLE
350
17
0
DICTIONARY
5
D
100
AcDbDictionary
0
DICTIONARY
5
1A
330
C
100
AcDbDictionary
0
DICTIONARY
5
17
100
AcDbDictionary
0
ENDSEC
0
EOF
